<mxfile host="app.diagrams.net" agent="Mozilla/5.0 (Windows NT 10.0; Win64; x64; rv:143.0) Gecko/20100101 Firefox/143.0" version="28.2.5">
  <diagram name="Page-1" id="PB7YeTOmmNeiVIq5dpvi">
    <mxGraphModel grid="1" page="1" gridSize="10" guides="1" tooltips="1" connect="1" arrows="1" fold="1" pageScale="1" pageWidth="827" pageHeight="1169" math="0" shadow="0">
      <root>
        <mxCell id="0" />
        <mxCell id="1" parent="0" />
        <mxCell id="wtKNmJfNUJsdgL1GCQGv-2" value="V_producto/id" style="rounded=0;whiteSpace=wrap;html=1;fillColor=#ffe6cc;strokeColor=#d79b00;" vertex="1" parent="1">
          <mxGeometry x="-634.22" y="40" width="120" height="60" as="geometry" />
        </mxCell>
        <mxCell id="wtKNmJfNUJsdgL1GCQGv-3" value="&lt;div&gt;C_reviews/upload&lt;/div&gt;&lt;div&gt;(route.ts)&lt;/div&gt;" style="rounded=0;whiteSpace=wrap;html=1;fillColor=#e1d5e7;strokeColor=#9673a6;" vertex="1" parent="1">
          <mxGeometry x="-274.22" y="40" width="120" height="60" as="geometry" />
        </mxCell>
        <mxCell id="wtKNmJfNUJsdgL1GCQGv-4" value="orders" style="rounded=0;whiteSpace=wrap;html=1;fillColor=#d5e8d4;strokeColor=#82b366;" vertex="1" parent="1">
          <mxGeometry x="166.77999999999997" y="40" width="120" height="60" as="geometry" />
        </mxCell>
        <mxCell id="wtKNmJfNUJsdgL1GCQGv-5" value="Actor" style="shape=umlActor;verticalLabelPosition=bottom;verticalAlign=top;html=1;outlineConnect=0;" vertex="1" parent="1">
          <mxGeometry x="-760" y="40" width="30" height="60" as="geometry" />
        </mxCell>
        <mxCell id="wtKNmJfNUJsdgL1GCQGv-6" style="edgeStyle=orthogonalEdgeStyle;rounded=0;orthogonalLoop=1;jettySize=auto;html=1;exitX=0.5;exitY=1;exitDx=0;exitDy=0;" edge="1" parent="1" source="wtKNmJfNUJsdgL1GCQGv-2" target="wtKNmJfNUJsdgL1GCQGv-2">
          <mxGeometry relative="1" as="geometry" />
        </mxCell>
        <mxCell id="wtKNmJfNUJsdgL1GCQGv-7" value="" style="endArrow=none;dashed=1;html=1;dashPattern=1 3;strokeWidth=2;rounded=0;entryX=0.5;entryY=0.5;entryDx=0;entryDy=0;entryPerimeter=0;" edge="1" parent="1" target="wtKNmJfNUJsdgL1GCQGv-5">
          <mxGeometry width="50" height="50" relative="1" as="geometry">
            <mxPoint x="-745" y="680" as="sourcePoint" />
            <mxPoint x="-723" y="170" as="targetPoint" />
          </mxGeometry>
        </mxCell>
        <mxCell id="wtKNmJfNUJsdgL1GCQGv-8" value="" style="endArrow=none;dashed=1;html=1;dashPattern=1 3;strokeWidth=2;rounded=0;entryX=0.5;entryY=1;entryDx=0;entryDy=0;" edge="1" parent="1" target="wtKNmJfNUJsdgL1GCQGv-3">
          <mxGeometry width="50" height="50" relative="1" as="geometry">
            <mxPoint x="-214.22000000000003" y="680" as="sourcePoint" />
            <mxPoint x="25.779999999999973" y="370" as="targetPoint" />
          </mxGeometry>
        </mxCell>
        <mxCell id="wtKNmJfNUJsdgL1GCQGv-9" value="" style="endArrow=none;dashed=1;html=1;dashPattern=1 3;strokeWidth=2;rounded=0;entryX=0.5;entryY=1;entryDx=0;entryDy=0;" edge="1" parent="1" target="wtKNmJfNUJsdgL1GCQGv-4">
          <mxGeometry width="50" height="50" relative="1" as="geometry">
            <mxPoint x="226.77999999999997" y="680" as="sourcePoint" />
            <mxPoint x="296.78" y="370" as="targetPoint" />
          </mxGeometry>
        </mxCell>
        <mxCell id="wtKNmJfNUJsdgL1GCQGv-10" value="" style="endArrow=none;dashed=1;html=1;rounded=0;entryX=0.5;entryY=1;entryDx=0;entryDy=0;exitX=0.5;exitY=0;exitDx=0;exitDy=0;" edge="1" parent="1" target="wtKNmJfNUJsdgL1GCQGv-2">
          <mxGeometry width="50" height="50" relative="1" as="geometry">
            <mxPoint x="-574.2200000000003" y="680" as="sourcePoint" />
            <mxPoint x="-144.22000000000003" y="370" as="targetPoint" />
          </mxGeometry>
        </mxCell>
        <mxCell id="wtKNmJfNUJsdgL1GCQGv-11" value="" style="endArrow=classic;html=1;rounded=0;" edge="1" parent="1">
          <mxGeometry width="50" height="50" relative="1" as="geometry">
            <mxPoint x="-740" y="160" as="sourcePoint" />
            <mxPoint x="-580" y="160" as="targetPoint" />
          </mxGeometry>
        </mxCell>
        <mxCell id="wtKNmJfNUJsdgL1GCQGv-12" value="Clic detalle producto" style="edgeLabel;html=1;align=center;verticalAlign=middle;resizable=0;points=[];" connectable="0" vertex="1" parent="wtKNmJfNUJsdgL1GCQGv-11">
          <mxGeometry x="-0.1758" y="4" relative="1" as="geometry">
            <mxPoint x="24" y="-6" as="offset" />
          </mxGeometry>
        </mxCell>
        <mxCell id="wtKNmJfNUJsdgL1GCQGv-13" value="" style="endArrow=classic;html=1;rounded=0;" edge="1" parent="1">
          <mxGeometry width="50" height="50" relative="1" as="geometry">
            <mxPoint x="-574.22" y="348" as="sourcePoint" />
            <mxPoint x="-384.22" y="348" as="targetPoint" />
          </mxGeometry>
        </mxCell>
        <mxCell id="wtKNmJfNUJsdgL1GCQGv-14" value="Renderiza componente(reviews)" style="text;html=1;align=center;verticalAlign=middle;resizable=0;points=[];autosize=1;strokeColor=none;fillColor=none;" vertex="1" parent="1">
          <mxGeometry x="-569.22" y="318" width="200" height="30" as="geometry" />
        </mxCell>
        <mxCell id="wtKNmJfNUJsdgL1GCQGv-15" value="" style="endArrow=classic;html=1;rounded=0;" edge="1" parent="1">
          <mxGeometry width="50" height="50" relative="1" as="geometry">
            <mxPoint x="-209.22000000000003" y="240" as="sourcePoint" />
            <mxPoint x="230.77999999999997" y="240" as="targetPoint" />
          </mxGeometry>
        </mxCell>
        <mxCell id="wtKNmJfNUJsdgL1GCQGv-16" value="&lt;div&gt;SELECT * FROM reviews WHERE productId = ? AND aprovado = true, productId&lt;/div&gt;" style="text;html=1;align=center;verticalAlign=middle;resizable=0;points=[];autosize=1;strokeColor=none;fillColor=none;" vertex="1" parent="1">
          <mxGeometry x="-214.22000000000003" y="208.57000000000005" width="460" height="30" as="geometry" />
        </mxCell>
        <mxCell id="wtKNmJfNUJsdgL1GCQGv-17" value="" style="endArrow=classic;html=1;rounded=0;dashed=1;" edge="1" parent="1">
          <mxGeometry width="50" height="50" relative="1" as="geometry">
            <mxPoint x="230.77999999999997" y="280" as="sourcePoint" />
            <mxPoint x="-209.22000000000003" y="280" as="targetPoint" />
          </mxGeometry>
        </mxCell>
        <mxCell id="wtKNmJfNUJsdgL1GCQGv-18" value="NULL" style="text;html=1;align=center;verticalAlign=middle;resizable=0;points=[];autosize=1;strokeColor=none;fillColor=none;" vertex="1" parent="1">
          <mxGeometry x="-9.220000000000027" y="250" width="50" height="30" as="geometry" />
        </mxCell>
        <mxCell id="wtKNmJfNUJsdgL1GCQGv-19" value="" style="endArrow=classic;html=1;rounded=0;" edge="1" parent="1">
          <mxGeometry width="50" height="50" relative="1" as="geometry">
            <mxPoint x="-374.22" y="450" as="sourcePoint" />
            <mxPoint x="-734.22" y="450" as="targetPoint" />
          </mxGeometry>
        </mxCell>
        <mxCell id="wtKNmJfNUJsdgL1GCQGv-20" value="Muestra &quot;No hay reseñas aún&quot;" style="text;html=1;align=center;verticalAlign=middle;resizable=0;points=[];autosize=1;strokeColor=none;fillColor=none;" vertex="1" parent="1">
          <mxGeometry x="-754.22" y="420" width="190" height="30" as="geometry" />
        </mxCell>
        <mxCell id="wtKNmJfNUJsdgL1GCQGv-21" value="V_components/review-list" style="rounded=0;whiteSpace=wrap;html=1;fillColor=#ffe6cc;strokeColor=#d79b00;" vertex="1" parent="1">
          <mxGeometry x="-434.22" y="40" width="120" height="60" as="geometry" />
        </mxCell>
        <mxCell id="wtKNmJfNUJsdgL1GCQGv-22" value="" style="endArrow=none;dashed=1;html=1;dashPattern=1 3;strokeWidth=2;rounded=0;entryX=0.5;entryY=1;entryDx=0;entryDy=0;" edge="1" parent="1" target="wtKNmJfNUJsdgL1GCQGv-21">
          <mxGeometry width="50" height="50" relative="1" as="geometry">
            <mxPoint x="-374" y="680" as="sourcePoint" />
            <mxPoint x="-354.22" y="60" as="targetPoint" />
          </mxGeometry>
        </mxCell>
        <mxCell id="wtKNmJfNUJsdgL1GCQGv-23" value="GET/api/reviews/upload()" style="text;html=1;align=center;verticalAlign=middle;resizable=0;points=[];autosize=1;strokeColor=none;fillColor=none;" vertex="1" parent="1">
          <mxGeometry x="-374.22" y="178.57000000000005" width="160" height="30" as="geometry" />
        </mxCell>
        <mxCell id="wtKNmJfNUJsdgL1GCQGv-24" value="" style="endArrow=classic;html=1;rounded=0;" edge="1" parent="1">
          <mxGeometry width="50" height="50" relative="1" as="geometry">
            <mxPoint x="-574.22" y="210" as="sourcePoint" />
            <mxPoint x="-214.22000000000003" y="208.57000000000005" as="targetPoint" />
          </mxGeometry>
        </mxCell>
        <mxCell id="wtKNmJfNUJsdgL1GCQGv-25" value="" style="endArrow=classic;html=1;rounded=0;" edge="1" parent="1">
          <mxGeometry width="50" height="50" relative="1" as="geometry">
            <mxPoint x="-214.22000000000003" y="302" as="sourcePoint" />
            <mxPoint x="-574.22" y="302" as="targetPoint" />
          </mxGeometry>
        </mxCell>
        <mxCell id="wtKNmJfNUJsdgL1GCQGv-26" value="{ reviews=NULL }" style="text;html=1;align=center;verticalAlign=middle;resizable=0;points=[];autosize=1;strokeColor=none;fillColor=none;" vertex="1" parent="1">
          <mxGeometry x="-364.22" y="270" width="120" height="30" as="geometry" />
        </mxCell>
        <mxCell id="wtKNmJfNUJsdgL1GCQGv-27" value="" style="endArrow=classic;html=1;rounded=0;" edge="1" parent="1">
          <mxGeometry width="50" height="50" relative="1" as="geometry">
            <mxPoint x="-374.22" y="412" as="sourcePoint" />
            <mxPoint x="-374.22" y="432" as="targetPoint" />
            <Array as="points">
              <mxPoint x="-334.22" y="412" />
              <mxPoint x="-334.22" y="432" />
            </Array>
          </mxGeometry>
        </mxCell>
        <mxCell id="wtKNmJfNUJsdgL1GCQGv-28" value="No entra a StarDisplay" style="text;html=1;align=center;verticalAlign=middle;resizable=0;points=[];autosize=1;strokeColor=none;fillColor=none;" vertex="1" parent="1">
          <mxGeometry x="-374.22" y="390" width="140" height="30" as="geometry" />
        </mxCell>
        <mxCell id="wtKNmJfNUJsdgL1GCQGv-31" value="" style="endArrow=classic;html=1;rounded=0;" edge="1" parent="1">
          <mxGeometry width="50" height="50" relative="1" as="geometry">
            <mxPoint x="-374.22" y="370" as="sourcePoint" />
            <mxPoint x="-374.22" y="390" as="targetPoint" />
            <Array as="points">
              <mxPoint x="-334.22" y="370" />
              <mxPoint x="-334.22" y="390" />
            </Array>
          </mxGeometry>
        </mxCell>
        <mxCell id="wtKNmJfNUJsdgL1GCQGv-32" value="Valida reviews.length === 0" style="text;html=1;align=center;verticalAlign=middle;resizable=0;points=[];autosize=1;strokeColor=none;fillColor=none;" vertex="1" parent="1">
          <mxGeometry x="-384.22" y="348" width="170" height="30" as="geometry" />
        </mxCell>
      </root>
    </mxGraphModel>
  </diagram>
</mxfile>
